<?xml version="1.0" encoding="UTF-8"?>
<svg id="Ebene_3" data-name="Ebene 3" xmlns="http://www.w3.org/2000/svg" viewBox="0 0 131.12 81.03">
  <defs>
    <style>
      .cls-1 {
        fill: #c3cec3;
      }

      .cls-2 {
        fill: #efa348;
      }

      .cls-3 {
        fill: #ffe1a4;
      }

      .cls-4 {
        fill: #588157;
      }
    </style>
  </defs>
  <g id="Farben">
    <g>
      <g>
        <path class="cls-1" d="M128.78,49.9h-10.85c-1.29,0-2.34-1.05-2.34-2.34h0c0-1.29,1.05-2.34,2.34-2.34h10.85c1.29,0,2.34,1.05,2.34,2.34h0c0,1.29-1.05,2.34-2.34,2.34Z"/>
        <path class="cls-1" d="M13.19,49.9H2.34c-1.29,0-2.34-1.05-2.34-2.34h0c0-1.29,1.05-2.34,2.34-2.34h10.85c1.29,0,2.34,1.05,2.34,2.34h0c0,1.29-1.05,2.34-2.34,2.34Z"/>
      </g>
      <path class="cls-4" d="M11.25,60c0,11.57,9.47,21.03,21.03,21.03h66.55c11.57,0,21.03-9.47,21.03-21.03v-19.75H11.25v19.75Z"/>
      <path class="cls-1" d="M69.22,0h-7.18c-1.76,0-3.37,1.16-3.73,2.88-.49,2.35,1.31,4.45,3.58,4.45h.43v5.58h6.47v-5.58h.28c1.76,0,3.37-1.16,3.73-2.88.49-2.35-1.31-4.45-3.58-4.45Z"/>
      <path class="cls-3" d="M119.87,40.25c0-16.46-13.46-29.92-29.92-29.92h-48.78c-16.46,0-29.92,13.46-29.92,29.92h0s108.62,0,108.62,0h0Z"/>
      <path class="cls-2" d="M120.47,42.88H10.64c-.97,0-1.77-.8-1.77-1.77h0c0-.97.8-1.77,1.77-1.77h109.83c.97,0,1.77.8,1.77,1.77h0c0,.97-.8,1.77-1.77,1.77Z"/>
    </g>
  </g>
</svg>