<?xml version="1.0" encoding="UTF-8"?>
<svg id="Ebene_3" data-name="Ebene 3" xmlns="http://www.w3.org/2000/svg" viewBox="0 0 125.67 111.58">
  <defs>
    <style>
      .cls-1 {
        fill: #c3cec3;
      }

      .cls-2 {
        fill: #fff;
      }

      .cls-3 {
        fill: #efa348;
      }

      .cls-4 {
        fill: #ffe1a4;
      }

      .cls-5 {
        fill: #588157;
      }
    </style>
  </defs>
  <g id="Farben">
    <g>
      <rect class="cls-5" x="34.54" y="33.24" width="2.3" height="22.05" rx=".94" ry=".94"/>
      <rect class="cls-3" x="19.56" y="29.3" width="32.26" height="7.9" rx="2" ry="2"/>
      <g>
        <rect class="cls-3" x="25.48" y="106.32" width="14.48" height="5.27" rx="2" ry="2"/>
        <rect class="cls-3" x="92.96" y="106.32" width="14.48" height="5.27" rx="2" ry="2"/>
      </g>
      <g>
        <path class="cls-5" d="M69.17,90.19H14.52c-3.32,0-6.03,2.71-6.03,6.03v5.72c0,3.32,2.71,6.03,6.03,6.03h103.69c3.32,0,6.03-2.71,6.03-6.03v-5.72c0-1.85-.84-3.51-2.17-4.62-2.61-13.9-3.1-26.96-2.76-37.62h-41.36c2.13,23.84-4.23,32.84-8.78,36.21Z"/>
        <path class="cls-2" d="M119.62,53.98c.72,0,1.32-.59,1.32-1.32s-.59-1.32-1.32-1.32h-.22c-.04.86-.07,1.74-.1,2.63h.32Z"/>
        <path class="cls-2" d="M77.49,51.35c-.72,0-1.32.59-1.32,1.32s.59,1.32,1.32,1.32h.45c-.08-.86-.17-1.74-.26-2.63h-.19Z"/>
        <path class="cls-1" d="M77.94,53.98h41.36c.03-.89.06-1.77.1-2.63h-41.73c.1.9.19,1.78.26,2.63Z"/>
      </g>
      <path class="cls-1" d="M1.76,49.37c-.98,0-1.79.81-1.76,1.79.74,24.28,16.43,39.52,35.69,39.52s34.95-15.24,35.69-39.52c.03-.98-.78-1.79-1.76-1.79H1.76Z"/>
      <g>
        <path class="cls-4" d="M113.33,0H20.83c-5.94,0-10.94,4.26-12.09,9.87h60.69c1.09,0,1.97.89,1.97,1.97v3.95c0,1.09-.89,1.97-1.97,1.97H8.7c-.07,0-.14-.01-.21-.02v1.17c0,6.79,5.55,12.34,12.34,12.34h30.98c25.67,0,25.67,18.43,25.67,18.43.07.56.13,1.1.19,1.65h41.73c.59-12.88,2.33-21.77,2.7-23.52.04-.21.15-.4.29-.55,2.03-2.2,3.28-5.13,3.28-8.35v-6.58c0-6.79-5.55-12.34-12.34-12.34Z"/>
        <path class="cls-1" d="M69.43,17.77c1.09,0,1.97-.89,1.97-1.97v-3.95c0-1.09-.89-1.97-1.97-1.97H8.74c-.16.8-.25,1.62-.25,2.47v5.41c.07,0,.14.02.21.02h60.73Z"/>
      </g>
    </g>
  </g>
</svg>