<?xml version="1.0" encoding="UTF-8"?>
<svg id="Ebene_2" data-name="Ebene 2" xmlns="http://www.w3.org/2000/svg" xmlns:xlink="http://www.w3.org/1999/xlink" viewBox="0 0 64.19 38.93">
  <defs>
    <style>
      .cls-1 {
        fill: #efa348;
      }

      .cls-2 {
        fill: none;
      }

      .cls-3 {
        fill: #ffe1a4;
      }

      .cls-4 {
        clip-path: url(#clippath-1);
      }

      .cls-5 {
        fill: #588157;
      }

      .cls-6 {
        clip-path: url(#clippath-2);
      }

      .cls-7 {
        clip-path: url(#clippath);
      }
    </style>
    <clipPath id="clippath">
      <path class="cls-2" d="M45.4,21.26c-2.66,2.98-7.59,13.55-4.5,16.3s13.02-3.34,15.69-6.32,2.32-7.64-.77-10.39c-3.09-2.76-7.75-2.57-10.41.41Z"/>
    </clipPath>
    <clipPath id="clippath-1">
      <path class="cls-2" d="M18.79,21.93c2.66,2.98,7.59,13.55,4.5,16.3s-13.02-3.34-15.69-6.32-2.32-7.64.77-10.39c3.09-2.76,7.75-2.57,10.41.41Z"/>
    </clipPath>
    <clipPath id="clippath-2">
      <path class="cls-2" d="M24.57,19.08c-.05,4,3.15,15.2,7.29,15.26s7.65-11.06,7.7-15.06-3.26-7.29-7.4-7.34-7.54,3.14-7.59,7.14Z"/>
    </clipPath>
  </defs>
  <g id="Farben">
    <g>
      <g>
        <g class="cls-7">
          <path class="cls-1" d="M45.4,21.26c-2.66,2.98-7.59,13.55-4.5,16.3s13.02-3.34,15.69-6.32,2.32-7.64-.77-10.39c-3.09-2.76-7.75-2.57-10.41.41Z"/>
          <path class="cls-3" d="M43.5,14.68c.3-.03.79-.16,1.07-.08.05.11.11.43.14.55.4,1.57.76,3.38,1.38,4.85.75,1.78,1.98,3.37,3.01,5.05.05.08.03.19-.06.24-1.89-.87-3.53-2.57-4.74-4.35-1.09-1.72-1.56-3.63-2.08-5.54-.08-.21-.02-.25.21-.35.3-.13.74-.32,1.07-.37h0Z"/>
          <path class="cls-3" d="M36.99,23.58c.29-.1.74-.33,1.02-.32.07.09.19.37.25.48.21.4.78,1.47,1,1.88,1.37,2.49,2.84,4.9,4.92,6.88.07.07.08.18,0,.25-.95.05-2.09-.86-2.9-1.38-2.34-1.78-4.05-4.24-5.4-6.82-.13-.19-.07-.23.13-.38.26-.19.65-.46.96-.59h0Z"/>
          <path class="cls-3" d="M57.9,33.17c.05.26.16.72.13.96,0,.06-.02.08-.03.1-.51.16-1.08.2-1.6.19-3.74-.16-7.36-2.72-8.68-6.2-.06-.17.17-.31.29-.18.71.69,1.44,1.29,2.22,1.8,2.09,1.31,4.63,2.48,7.11,2.01.09.09.19.39.27.53.08.21.26.57.29.79h0Z"/>
        </g>
        <ellipse class="cls-5" cx="54.46" cy="22.63" rx="1" ry="1.6" transform="translate(3.91 53) rotate(-53.56)"/>
        <path class="cls-5" d="M55.1,22.73c9.26.92,6.97-3.4,4.66-2.93,4.39-.86,6.3-4.23,2.06-3.77,5.75-3.19-1.21-8.58-1.57-.35-.52-5.57-4.2-2.1-2.51,2.82-.85-3.61-3.06-3.28-3.1,3.64"/>
      </g>
      <g>
        <g class="cls-4">
          <path class="cls-1" d="M18.79,21.93c2.66,2.98,7.59,13.55,4.5,16.3s-13.02-3.34-15.69-6.32-2.32-7.64.77-10.39c3.09-2.76,7.75-2.57,10.41.41Z"/>
          <path class="cls-3" d="M21.04,15.45c.28.12.78.24.97.44,0,.12-.12.43-.14.55-.67,2.8-1.81,5.72-4.06,7.64-.79.7-1.59,1.34-2.47,1.89-.08.05-.19.03-.24-.06.21-.88,1.22-1.89,1.64-2.74,1.1-1.65,1.76-3.27,2.21-5.19.17-.67.46-1.87.63-2.53.03-.23.1-.23.35-.2.32.03.8.08,1.11.19h0Z"/>
          <path class="cls-3" d="M27.52,24.41c.15.11.52.32.64.43.2.15.26.19.13.38-1.81,3.4-4.31,6.97-8.11,8.25-.17.05-.3-.18-.17-.3.71-.68,1.35-1.38,1.91-2.13,1.43-1.84,2.59-3.93,3.68-6,.16-.29.42-.83.58-1.11.31,0,1.04.31,1.34.48h0Z"/>
          <path class="cls-3" d="M6.4,33.5c.13-.27.28-.75.45-.97,3.44.54,6.86-1.5,9.33-3.81.12-.13.35.01.29.18-.69,1.97-2.23,3.59-4,4.7-1.74,1.09-3.95,1.81-6.05,1.37-.1-.04-.26,0-.27-.16-.02-.38.09-.94.24-1.31h0Z"/>
        </g>
        <ellipse class="cls-5" cx="9.73" cy="23.3" rx="1.6" ry="1" transform="translate(-11.94 10.34) rotate(-36.44)"/>
        <path class="cls-5" d="M9.09,23.4c-9.26.92-6.97-3.4-4.66-2.93-4.39-.86-6.3-4.23-2.06-3.77-5.75-3.19,1.21-8.58,1.57-.35.52-5.57,4.2-2.1,2.51,2.82.85-3.61,3.06-3.28,3.1,3.64"/>
      </g>
      <g>
        <g class="cls-6">
          <path class="cls-1" d="M24.57,19.08c-.05,4,3.15,15.2,7.29,15.26s7.65-11.06,7.7-15.06-3.26-7.29-7.4-7.34-7.54,3.14-7.59,7.14Z"/>
          <path class="cls-3" d="M18.83,15.36c.21-.22.49-.65.75-.76.11.05.36.25.47.32,1.33.92,2.8,2.05,4.22,2.76,1.73.85,3.71,1.25,5.59,1.85.09.03.14.13.12.22-.76.41-2.31.26-3.25.31-3.1.03-5.95-1.57-8.39-3.32-.2-.11-.18-.17-.07-.4.14-.29.35-.72.56-.98h0Z"/>
          <path class="cls-3" d="M19.74,26.34c.16-.26.34-.74.56-.91.11.03.39.16.5.2.42.17,1.55.6,1.99.77,2.67.98,5.36,1.84,8.23,1.97.1,0,.17.08.17.18-.61.63-2.19.73-3.09.86-2.81.18-5.6-.48-8.2-1.48,0,0-.35-.13-.35-.13-.08-.05-.21-.03-.18-.17.05-.38.2-.92.37-1.28h0Z"/>
          <path class="cls-3" d="M41.82,19.88c.21.16.6.44.73.64.13.15-.29.52-.39.66-2.81,2.93-7.76,3.51-11.27,1.63-.16-.09-.08-.34.1-.33.99.05,1.93.04,2.86-.1,2.44-.38,5.13-1.16,6.69-3.14.13,0,.4.17.55.23.2.11.57.26.74.4h0Z"/>
        </g>
        <ellipse class="cls-5" cx="32.31" cy="14.17" rx="1.6" ry="1" transform="translate(-1.02 2.59) rotate(-4.52)"/>
        <path class="cls-5" d="M32.86,13.83c7.6-5.38,3.04-7.13,1.6-5.27,2.75-3.52,1.99-7.32-.92-4.2,2.25-6.18-6.54-5.69-1.41.77-4.04-3.86-4.54,1.17-.05,3.78-3.01-2.17-4.46-.47.04,4.79"/>
      </g>
    </g>
  </g>
</svg>