<?xml version="1.0" encoding="UTF-8"?>
<svg id="Ebene_3" data-name="Ebene 3" xmlns="http://www.w3.org/2000/svg" viewBox="0 0 142.58 146.99">
  <defs>
    <style>
      .cls-1 {
        fill: #c3cec3;
      }

      .cls-2 {
        fill: #efa348;
      }

      .cls-3 {
        fill: #588157;
      }
    </style>
  </defs>
  <g id="Farben">
    <g>
      <g>
        <g>
          <path class="cls-2" d="M134.76,106.31c-2.47-.62-4.56-2.43-5.71-4.96-1.16-2.53-1.16-5.29,0-7.57,1.22-2.4,3.38-3.96,5.29-5.34.43-.31.87-.62,1.28-.94,1.34-1.03,3.56-3.07,3.28-5.23-.25-1.92-2.28-3.44-6.41-4.78-2.25-.73-8.23-2.68-8.94-7.73-.51-3.61,1.9-6.24,4.02-8.55,1.59-1.73,3.09-3.37,3.32-5.18.15-1.14-.36-2.34-1.39-3.29-1.26-1.17-3.04-1.72-4.53-1.41-2.96.62-5.37,3.78-5.6,7.36-.03.52-.03,1.05-.03,1.58,0,1.4,0,2.98-.59,4.52-.6,1.57-2.01,2.9-3.59,3.39-1.28.4-2.55.22-3.58-.49l2.08-3s.14.1.43,0c.51-.16,1.05-.68,1.26-1.21.35-.91.35-2.02.34-3.21,0-.59,0-1.2.04-1.83.34-5.24,3.92-9.74,8.5-10.7,2.65-.56,5.62.33,7.76,2.3,1.91,1.76,2.83,4.11,2.54,6.44-.38,2.97-2.44,5.21-4.25,7.19-1.8,1.97-3.36,3.67-3.1,5.57.27,1.91,2.32,3.42,6.45,4.77,3.54,1.15,8.31,3.21,8.9,7.79.39,2.99-1.23,5.97-4.69,8.6-.44.34-.9.67-1.36,1-1.73,1.25-3.36,2.42-4.17,4.03-.64,1.26-.61,2.9.07,4.4.68,1.49,1.91,2.59,3.28,2.93l-.89,3.54Z"/>
          <path class="cls-2" d="M7.81,106.31l-.89-3.54c1.37-.34,2.59-1.44,3.28-2.93s.71-3.14.07-4.4c-.81-1.61-2.45-2.78-4.17-4.03-.46-.33-.92-.66-1.36-1-3.45-2.63-5.07-5.61-4.69-8.6.59-4.57,5.36-6.64,8.9-7.79,4.14-1.35,6.19-2.86,6.45-4.77.27-1.91-1.29-3.61-3.1-5.57-1.82-1.98-3.88-4.22-4.25-7.19-.3-2.33.63-4.67,2.54-6.44,2.14-1.97,5.11-2.85,7.76-2.3,4.58.96,8.16,5.46,8.5,10.7.04.62.04,1.24.04,1.83,0,1.18,0,2.3.34,3.21.2.53.74,1.05,1.26,1.21.28.09.39.02.43,0l2.08,3c-1.03.71-2.3.89-3.58.49-1.58-.49-2.99-1.82-3.59-3.39-.59-1.54-.59-3.12-.59-4.52,0-.53,0-1.06-.03-1.58-.24-3.58-2.64-6.74-5.6-7.36-1.49-.31-3.27.24-4.53,1.41-1.03.95-1.54,2.15-1.39,3.29.23,1.82,1.73,3.45,3.32,5.18,2.12,2.31,4.53,4.94,4.02,8.55-.71,5.05-6.69,7-8.94,7.73-4.12,1.34-6.16,2.86-6.41,4.78-.28,2.16,1.93,4.21,3.28,5.23.42.32.85.63,1.28.94,1.91,1.38,4.08,2.94,5.29,5.34,1.15,2.28,1.15,5.03,0,7.57-1.16,2.53-3.24,4.34-5.71,4.96Z"/>
        </g>
        <path class="cls-2" d="M71.29,56.07c-8.46,0-15.09-12.31-15.09-28.03S62.83,0,71.29,0s15.09,12.31,15.09,28.03-6.63,28.03-15.09,28.03ZM71.29,3.65c-6.2,0-11.44,11.17-11.44,24.38s5.24,24.38,11.44,24.38,11.44-11.17,11.44-24.38-5.24-24.38-11.44-24.38Z"/>
        <path class="cls-3" d="M115.37,65.87c-29.19-17-28.64-43.55-28.64-43.55h-30.87s.55,26.55-28.64,43.55c0,0-.43,46.26-13.74,76.99h0c63.96,9.28,115.63,0,115.63,0-15.45-30.95-13.74-76.99-13.74-76.99Z"/>
      </g>
      <rect class="cls-1" x="59.61" y="45.39" width="23.36" height="24.49" rx="2" ry="2"/>
    </g>
  </g>
</svg>