<?xml version="1.0" encoding="UTF-8"?>
<svg id="Ebene_2" data-name="Ebene 2" xmlns="http://www.w3.org/2000/svg" viewBox="0 0 185.23 191.96">
  <defs>
    <style>
      .cls-1 {
        fill: #cf4538;
      }

      .cls-2 {
        fill: #efa348;
      }

      .cls-3 {
        fill: none;
      }

      .cls-4 {
        fill: #ffe1a4;
      }

      .cls-5 {
        fill: #588157;
      }
    </style>
  </defs>
  <g id="Farben">
    <g>
      <path class="cls-2" d="M56.66,7.26c49.79-17.41,93.4-1.84,113.5,28.92,14.51,22.21,18.09,48.46,12.66,74.39-5.44,25.94-25.37,60.93-69.82,73.1"/>
      <path class="cls-4" d="M61.25,5.76c33.69-9.15,70.92,3.82,91.02,34.58,14.51,22.21,19.51,48.73,14.07,74.66-5.44,25.94-20.67,48.21-42.88,62.72-45.82,29.93-115.76,9.15-120.72-30-1.85-14.61,8.18-17.17,10.5-17.84C1.46,113.54-2.34,89.34,2,68.62,6.54,47,19.23,28.43,37.74,16.33c7.43-4.86,15.37-8.36,23.51-10.57Z"/>
      <path class="cls-1" d="M70.79,100.2c-6.74.48-13.8-6.41-15.29-14.34-1.47-7.87,1.99-16.09,7.82-21.31,17.51-15.66,47.8-6.52,53.28,23.19,4.34,23.56-7.82,46.49-33.18,53.4C29.24,155.92,1.92,92.69,25.59,52.15c16.48-28.23,50.3-40.34,79.64-30.05,44.46,15.59,59,68.71,39.92,108.04-13.38,27.58-42.39,47.57-71.66,46.08-53.88-2.75-61.67-45.84-61.67-45.84,0,0,.28-.12.59-.23.37-.13.78-.25.82-.25,0,0,3.83,7.46,5.64,9.94,12.94,16.82,35.73,23.54,56.22,21.48,23.34-2.13,43.1-17.59,53.62-37.9,15.43-29.91,2.95-74.45-31.07-84.67-34.59-10.87-68.98,18.66-63.7,54.45,3.08,22.55,21.45,40.37,44.94,33.55,20.77-6.05,30.18-31.7,18.16-49.71-5.54-8.48-17.9-10.46-25.5-3.32-3.45,3.16-6.92,6.88-7.67,11.63-.72,5.25,3.9,11.2,8.58,14.55,0,0-1.26.27-1.66.3Z"/>
      <path class="cls-5" d="M13.23,129.9c27.38,33.26,81.37,34.84,105.54-2.05,13.5-20.38,12.36-49.21-2.99-68.2-22.91-28.09-68.38-15.85-74.22,19.91-3.87,22.16,12.27,48.35,37.09,39.46,14.24-5.08,21.51-24.31,13.14-37.05-2.62-4.1-8.84-6.3-13.41-4.39-6.86,2.19-9.95,11.32-4.64,16.7,2.59,2.21.31,6.51-2.94,5.59-11.54-3.23-13.66-19.82-6.48-28.29,13.92-15.84,38.18-7.57,43.43,11.96,6.07,19.6-4.72,41.68-23.65,49.1-36.02,13.6-63.22-21.37-57.73-55.48,10.08-58.33,88.3-65.76,110.28-11.08,20.36,47.39-15.58,102.64-67.68,100.44-42.64-1.8-56.47-36.41-56.47-36.41,0,0,.16-.06.34-.12s.38-.1.38-.1Z"/>
      <path class="cls-3" d="M82.98,86.05c4.99,7.64,2.85,17.87-4.79,22.87-7.64,4.99-17.87,2.85-22.87-4.79-9.99-15.29-5.7-35.74,9.59-45.73,15.29-9.99,35.74-5.7,45.73,9.59,14.98,22.93,8.55,53.62-14.38,68.6-22.93,14.98-53.62,8.55-68.6-14.38C7.68,91.61,16.26,50.7,46.84,30.73c30.58-19.98,71.49-11.4,91.47,19.18,24.97,38.22,14.25,89.36-23.97,114.33-38.22,24.97-89.36,14.25-114.33-23.97"/>
    </g>
  </g>
</svg>